HIERARCHY
ROOT Hips
{
	OFFSET 0.000000 89.005402 0.000000
	CHANNELS 6 Xposition Yposition Zposition Xrotation Yrotation Zrotation
	JOINT Spine
	{
		OFFSET 0.116900 10.681000 0.373400
		CHANNELS 3 Xrotation Yrotation Zrotation
		JOINT Spine1
		{
			OFFSET 0.000000 13.840401 0.053500
			CHANNELS 3 Xrotation Yrotation Zrotation
			JOINT Spine2
			{
				OFFSET 0.000000 14.712700 -0.366200
				CHANNELS 3 Xrotation Yrotation Zrotation
				JOINT Neck
				{
					OFFSET 0.000000 35.415497 -3.314200
					CHANNELS 3 Xrotation Yrotation Zrotation
					JOINT Head
					{
						OFFSET 0.000000 16.899200 1.218300
						CHANNELS 3 Xrotation Yrotation Zrotation
						JOINT HeadTop_End
						{
							OFFSET 0.000000 22.206207 2.192500
							CHANNELS 3 Xrotation Yrotation Zrotation
							End Site
							{
								OFFSET 0.000000 22.314178 0.000000
							}
						}
					}
				}
				JOINT LeftShoulder
				{
					OFFSET 12.896400 26.716293 -4.548400
					CHANNELS 3 Xrotation Yrotation Zrotation
					JOINT LeftArm
					{
						OFFSET 19.027000 -4.857010 -1.718400
						CHANNELS 3 Xrotation Yrotation Zrotation
						JOINT LeftForeArm
						{
							OFFSET 24.179897 0.000000 0.000000
							CHANNELS 3 Xrotation Yrotation Zrotation
							JOINT LeftHand
							{
								OFFSET 27.156403 0.000000 0.000000
								CHANNELS 3 Xrotation Yrotation Zrotation
								JOINT LeftHandIndex1
								{
									OFFSET 16.441200 0.000000 0.000000
									CHANNELS 3 Xrotation Yrotation Zrotation
									JOINT LeftHandIndex2
									{
										OFFSET 4.821899 0.000000 0.000000
										CHANNELS 3 Xrotation Yrotation Zrotation
										JOINT LeftHandIndex3
										{
											OFFSET 6.386497 0.000000 0.000000
											CHANNELS 3 Xrotation Yrotation Zrotation
											JOINT LeftHandIndex4
											{
												OFFSET 5.188988 0.000000 0.000000
												CHANNELS 3 Xrotation Yrotation Zrotation
												End Site
												{
													OFFSET -0.178703 5.185913 0.000177
												}
											}
										}
									}
								}
								JOINT LeftHandThumb1
								{
									OFFSET 6.534897 -5.032593 5.900300
									CHANNELS 3 Xrotation Yrotation Zrotation
									JOINT LeftHandThumb2
									{
										OFFSET 3.818176 -2.204422 2.204423
										CHANNELS 3 Xrotation Yrotation Zrotation
										JOINT LeftHandThumb3
										{
											OFFSET 3.252098 -1.877594 1.877601
											CHANNELS 3 Xrotation Yrotation Zrotation
											JOINT LeftHandThumb4
											{
												OFFSET 5.251778 -3.032120 3.032117
												CHANNELS 3 Xrotation Yrotation Zrotation
												End Site
												{
													OFFSET 0.000023 6.780014 0.000000
												}
											}
										}
									}
								}
							}
						}
					}
				}
				JOINT RightShoulder
				{
					OFFSET -12.896300 26.716293 -4.548400
					CHANNELS 3 Xrotation Yrotation Zrotation
					JOINT RightArm
					{
						OFFSET -19.027000 -4.857010 -1.718400
						CHANNELS 3 Xrotation Yrotation Zrotation
						JOINT RightForeArm
						{
							OFFSET -24.179897 0.000000 0.000000
							CHANNELS 3 Xrotation Yrotation Zrotation
							JOINT RightHand
							{
								OFFSET -27.156403 0.000000 0.000000
								CHANNELS 3 Xrotation Yrotation Zrotation
								JOINT RightHandThumb1
								{
									OFFSET -6.591202 -4.852203 5.988100
									CHANNELS 3 Xrotation Yrotation Zrotation
									JOINT RightHandThumb2
									{
										OFFSET -3.818176 -2.204422 2.204423
										CHANNELS 3 Xrotation Yrotation Zrotation
										JOINT RightHandThumb3
										{
											OFFSET -3.252098 -1.877594 1.877601
											CHANNELS 3 Xrotation Yrotation Zrotation
											JOINT RightHandThumb4
											{
												OFFSET -5.251778 -3.032120 3.032117
												CHANNELS 3 Xrotation Yrotation Zrotation
												End Site
												{
													OFFSET -0.000023 6.780014 0.000000
												}
											}
										}
									}
								}
								JOINT RightHandIndex1
								{
									OFFSET -16.029404 0.000000 0.000000
									CHANNELS 3 Xrotation Yrotation Zrotation
									JOINT RightHandIndex2
									{
										OFFSET -5.213303 0.000000 0.000000
										CHANNELS 3 Xrotation Yrotation Zrotation
										JOINT RightHandIndex3
										{
											OFFSET -6.386528 0.000000 0.000000
											CHANNELS 3 Xrotation Yrotation Zrotation
											JOINT RightHandIndex4
											{
												OFFSET -5.189026 0.000000 0.000000
												CHANNELS 3 Xrotation Yrotation Zrotation
												End Site
												{
													OFFSET 0.236702 5.183624 0.001972
												}
											}
										}
									}
								}
							}
						}
					}
				}
			}
		}
	}
	JOINT LeftUpLeg
	{
		OFFSET 14.073000 -7.904099 -1.463000
		CHANNELS 3 Xrotation Yrotation Zrotation
		JOINT LeftLeg
		{
			OFFSET -0.109806 -34.073280 4.093200
			CHANNELS 3 Xrotation Yrotation Zrotation
			JOINT LeftFoot
			{
				OFFSET 0.109806 -29.899420 -6.319000
				CHANNELS 3 Xrotation Yrotation Zrotation
				JOINT LeftToeBase
				{
					OFFSET 1.551100 -14.988700 20.535801
					CHANNELS 3 Xrotation Yrotation Zrotation
					JOINT LeftToe_End
					{
						OFFSET 0.221200 0.570800 13.248301
						CHANNELS 3 Xrotation Yrotation Zrotation
						End Site
						{
							OFFSET 0.000000 13.262435 0.000000
						}
					}
				}
			}
		}
	}
	JOINT RightUpLeg
	{
		OFFSET -13.839300 -7.904099 -1.463000
		CHANNELS 3 Xrotation Yrotation Zrotation
		JOINT RightLeg
		{
			OFFSET 0.109694 -34.073219 4.093300
			CHANNELS 3 Xrotation Yrotation Zrotation
			JOINT RightFoot
			{
				OFFSET -0.109694 -29.899384 -6.319200
				CHANNELS 3 Xrotation Yrotation Zrotation
				JOINT RightToeBase
				{
					OFFSET -1.551100 -14.988700 20.535801
					CHANNELS 3 Xrotation Yrotation Zrotation
					JOINT RightToe_End
					{
						OFFSET -0.221200 0.570900 13.248299
						CHANNELS 3 Xrotation Yrotation Zrotation
						End Site
						{
							OFFSET 0.000000 13.262440 0.000000
						}
					}
				}
			}
		}
	}
}
MOTION
Frames: 8
Frame Time: 0.033333
4.421309 44.427040 12.692527 -0.200872 4.483305 -0.047008 -0.365416 -0.785572 -0.076391 -0.862226 -0.602947 -0.189320 -0.864295 -0.605481 -0.173897 6.121214 -0.484447 3.216483 -13.552555 1.828016 -3.356698 -0.000000 -0.000000 -0.000000 1.217442 -8.159042 -3.888343 -23.603558 -44.707263 -62.631100 0.000064 -111.844382 0.000069 0.007437 1.985414 37.342359 0.047659 -0.810415 6.731303 0.000004 0.003006 -0.024894 -0.000003 0.001509 -0.012450 -0.000000 -0.000003 0.000000 -43.525145 -4.916374 14.750603 5.346216 19.000468 14.590737 0.653262 6.828884 9.546754 0.000004 -0.000000 -0.000000 3.261176 9.665551 9.672194 -24.426747 30.987335 63.069304 0.000034 114.407451 -0.000046 5.241670 -0.044650 -17.031763 -27.365418 1.792383 -27.601112 4.637195 -8.634127 -0.225390 -1.273763 0.137313 -2.094882 -0.000002 0.000003 0.000000 0.208217 1.692139 -14.028836 -0.000004 -0.000483 0.003953 0.000003 -0.000243 0.001973 -0.000000 -0.000004 0.000000 -6.611971 -11.196382 14.993259 127.601990 13.363456 -2.028536 -23.273521 6.582219 -18.553891 -66.950675 16.973800 -20.683944 -0.000001 -0.000002 -0.000001 -2.020393 0.981877 -13.970924 122.623793 -14.785133 3.299147 -23.063860 -4.171060 11.445614 17.470039 -19.792794 -57.175363 0.000001 0.000001 0.000002 
4.420036 44.431053 12.689974 -0.195436 4.439267 -0.064329 -0.385598 -0.778368 -0.081487 -0.872250 -0.597194 -0.195012 -0.874274 -0.599806 -0.179936 6.033489 -0.494877 3.222226 -13.606363 1.791318 -3.375971 0.000000 -0.000000 0.000000 1.217442 -8.159043 -3.888343 -23.948863 -44.612248 -62.729728 0.000026 -111.267675 0.000020 -0.780161 2.845725 37.293069 0.047659 -0.810414 6.731302 0.000004 0.003002 -0.024896 -0.000003 0.001504 -0.012451 -0.000000 -0.000001 -0.000000 -43.525141 -4.916375 14.750603 5.346221 19.000464 14.590737 0.653261 6.828883 9.546757 -0.000001 0.000000 -0.000001 3.275378 9.705639 9.578034 -24.632821 30.935156 63.099022 0.000046 113.731666 -0.000039 3.912157 -0.166860 -17.278627 -27.365421 1.792382 -27.601112 4.637199 -8.634123 -0.225389 -1.273763 0.137318 -2.094880 -0.000001 0.000001 0.000000 0.208213 1.692138 -14.028829 0.000006 -0.000482 0.003939 -0.000009 -0.000238 0.001980 -0.000000 -0.000004 -0.000000 -6.625187 -11.113284 14.997902 127.566186 13.353757 -2.022226 -23.253835 6.537606 -18.422907 -66.871561 17.129474 -20.859601 -0.000002 -0.000001 0.000001 -2.003779 0.977044 -13.908255 122.655513 -14.960824 3.299281 -23.150448 -4.226433 11.529491 17.547169 -19.890906 -56.972462 -0.000001 0.000000 -0.000001 
4.413074 44.431702 12.694939 -0.163434 4.367760 -0.074219 -0.441332 -0.758085 -0.089450 -0.908905 -0.583289 -0.200591 -0.910836 -0.585851 -0.186191 5.964370 -0.501701 3.220324 -13.589068 1.755197 -3.369342 0.000000 -0.000000 -0.000000 1.217442 -8.159043 -3.888343 -24.169121 -44.497788 -62.760505 -0.000019 -110.601902 -0.000034 -1.843194 2.908927 37.227273 0.047660 -0.810420 6.731302 0.000004 0.003002 -0.024895 -0.000002 0.001503 -0.012451 -0.000000 0.000004 0.000000 -43.525141 -4.916381 14.750599 5.346214 19.000468 14.590735 0.653262 6.828887 9.546759 0.000004 0.000001 0.000000 3.302408 9.792512 9.437101 -24.768499 30.846651 63.107444 -0.000036 113.099975 0.000032 3.249112 -0.530226 -17.444156 -27.365419 1.792382 -27.601112 4.637196 -8.634128 -0.225387 -1.273763 0.137316 -2.094880 0.000001 -0.000002 -0.000001 0.208214 1.692129 -14.028827 0.000002 -0.000479 0.003944 -0.000000 -0.000237 0.001981 0.000000 -0.000004 -0.000000 -6.693063 -10.964172 14.969505 127.526134 13.411331 -2.004633 -23.237874 6.463160 -18.196553 -66.838298 17.306921 -21.031771 -0.000001 -0.000001 -0.000002 -2.053966 0.982448 -13.834213 122.698242 -15.023290 3.302960 -23.218601 -4.382680 11.521670 17.579712 -19.978810 -56.809634 -0.000000 0.000000 -0.000002 
4.403739 44.430794 12.710735 -0.131587 4.313520 -0.075479 -0.480100 -0.734590 -0.091502 -0.938862 -0.566994 -0.202310 -0.940742 -0.569430 -0.188465 5.964105 -0.504175 3.192496 -13.596454 1.705703 -3.345243 0.000000 -0.000000 0.000000 1.217442 -8.159043 -3.888342 -24.167564 -44.488249 -62.756605 0.000069 -110.496123 0.000060 -2.049244 2.919996 37.261796 0.047660 -0.810412 6.731301 0.000004 0.003007 -0.024896 -0.000003 0.001502 -0.012451 0.000000 -0.000004 -0.000000 -43.525145 -4.916377 14.750601 5.346211 19.000466 14.590730 0.653260 6.828885 9.546758 0.000002 -0.000002 -0.000002 3.318129 9.830133 9.314072 -24.745278 30.800601 63.107833 0.000080 113.018423 -0.000086 3.111344 -0.606621 -17.518501 -27.365419 1.792382 -27.601112 4.637202 -8.634130 -0.225390 -1.273763 0.137313 -2.094882 -0.000001 -0.000003 -0.000002 0.208210 1.692135 -14.028829 0.000000 -0.000477 0.003942 0.000008 -0.000248 0.001973 -0.000001 -0.000004 0.000000 -6.725502 -10.880168 14.953024 127.489183 13.430216 -1.993119 -23.234275 6.424412 -18.077979 -66.811592 17.408861 -21.138831 -0.000002 -0.000001 -0.000003 -2.106732 0.997120 -13.818642 122.711042 -15.046581 3.302992 -23.217920 -4.419748 11.490694 17.591400 -19.994532 -56.750881 0.000001 0.000000 0.000002 
4.396391 44.432846 12.735809 -0.118856 4.297790 -0.071885 -0.486207 -0.717869 -0.084365 -0.949727 -0.554831 -0.198962 -0.951636 -0.557070 -0.185347 6.015552 -0.504629 3.150946 -13.531220 1.652210 -3.318824 -0.000001 0.000000 0.000000 1.217443 -8.159043 -3.888342 -24.009491 -44.552470 -62.725691 -0.000063 -110.901392 -0.000057 -1.553162 3.011423 37.316564 0.047659 -0.810413 6.731303 0.000004 0.003005 -0.024895 -0.000003 0.001509 -0.012450 -0.000000 -0.000005 -0.000000 -43.525145 -4.916376 14.750605 5.346215 19.000466 14.590734 0.653262 6.828885 9.546756 0.000003 0.000000 -0.000001 3.311816 9.788265 9.274969 -24.613171 30.838782 63.113427 0.000047 113.406870 -0.000040 3.370853 -0.491376 -17.558241 -27.365419 1.792383 -27.601110 4.637198 -8.634128 -0.225391 -1.273761 0.137317 -2.094882 0.000001 0.000001 0.000000 0.208214 1.692130 -14.028844 0.000002 -0.000477 0.003941 -0.000002 -0.000238 0.001987 -0.000001 -0.000002 -0.000000 -6.657657 -10.902876 14.987242 127.458597 13.377929 -1.999536 -23.263209 6.465294 -18.185908 -66.780406 17.352010 -21.102971 -0.000000 -0.000001 -0.000002 -2.126193 1.019467 -13.832589 122.676836 -15.026932 3.303003 -23.151215 -4.354161 11.446290 17.577989 -19.938671 -56.815030 0.000001 0.000002 0.000000 
4.392950 44.439835 12.764967 -0.124387 4.309834 -0.068417 -0.477514 -0.710219 -0.071469 -0.950257 -0.548460 -0.192297 -0.952232 -0.550446 -0.178704 6.082735 -0.505972 3.126249 -13.300176 1.612502 -3.293936 -0.000000 -0.000000 -0.000000 1.217443 -8.159043 -3.888343 -23.892439 -44.624686 -62.711382 0.000027 -111.373304 0.000019 -1.007702 3.214924 37.298154 0.047660 -0.810414 6.731303 0.000004 0.003003 -0.024895 -0.000003 0.001506 -0.012452 0.000000 -0.000004 -0.000001 -43.525141 -4.916374 14.750603 5.346209 19.000466 14.590739 0.653265 6.828883 9.546758 0.000002 0.000000 -0.000001 3.288225 9.691845 9.331551 -24.507325 30.970144 63.089037 -0.000029 113.831796 0.000030 3.611128 -0.423824 -17.615910 -27.365418 1.792384 -27.601115 4.637198 -8.634125 -0.225390 -1.273764 0.137313 -2.094881 0.000002 -0.000000 -0.000001 0.208221 1.692134 -14.028829 -0.000002 -0.000479 0.003927 0.000002 -0.000242 0.001981 0.000000 0.000003 0.000000 -6.534148 -10.962151 15.050219 127.429514 13.320214 -2.014745 -23.307566 6.543621 -18.398303 -66.771041 17.195496 -20.958775 -0.000002 -0.000001 -0.000001 -2.104645 1.037555 -13.831627 122.610105 -15.005132 3.304206 -23.068617 -4.276588 11.405723 17.561747 -19.866811 -56.908433 -0.000000 0.000000 0.000002 
4.393604 44.448135 12.790460 -0.132140 4.326270 -0.067086 -0.473787 -0.710008 -0.057791 -0.951524 -0.546999 -0.185112 -0.953559 -0.548707 -0.171493 6.130395 -0.510332 3.130802 -12.999858 1.588616 -3.275825 0.000001 -0.000000 -0.000000 1.217443 -8.159043 -3.888342 -23.931866 -44.632199 -62.725992 0.000078 -111.533116 0.000071 -0.960666 3.449749 37.234148 0.047660 -0.810413 6.731302 0.000004 0.003003 -0.024895 -0.000003 0.001502 -0.012451 0.000000 0.000002 -0.000000 -43.525145 -4.916376 14.750603 5.346213 19.000464 14.590739 0.653262 6.828884 9.546756 0.000004 -0.000001 -0.000002 3.271092 9.621665 9.375339 -24.521936 31.095696 63.051129 0.000075 113.943108 -0.000084 3.538882 -0.542656 -17.715568 -27.365424 1.792383 -27.601110 4.637198 -8.634130 -0.225388 -1.273764 0.137311 -2.094881 0.000001 -0.000001 -0.000000 0.208217 1.692128 -14.028829 -0.000005 -0.000482 0.003953 -0.000004 -0.000242 0.001979 -0.000000 -0.000001 0.000000 -6.452323 -10.984987 15.095941 127.399175 13.301098 -2.023444 -23.325342 6.586174 -18.518415 -66.798075 17.079115 -20.835586 -0.000000 -0.000000 -0.000001 -2.072473 1.037520 -13.808448 122.548948 -15.000371 3.303222 -23.020297 -4.248207 11.374570 17.541574 -19.828193 -56.969327 -0.000000 0.000000 0.000002 
4.397555 44.452705 12.805521 -0.124913 4.334094 -0.067208 -0.480220 -0.718666 -0.043662 -0.956547 -0.551684 -0.177926 -0.958655 -0.553076 -0.164216 6.130374 -0.516175 3.140649 -12.829635 1.572936 -3.281151 -0.000001 0.000000 0.000000 1.217443 -8.159043 -3.888342 -24.049195 -44.560516 -62.727849 -0.000016 -111.411601 -0.000021 -1.315142 3.601126 37.185507 0.047660 -0.810416 6.731302 0.000004 0.003009 -0.024896 -0.000003 0.001508 -0.012451 0.000000 -0.000003 0.000001 -43.525141 -4.916377 14.750601 5.346215 19.000463 14.590730 0.653266 6.828885 9.546756 -0.000000 0.000001 0.000000 3.283829 9.659972 9.294927 -24.641787 31.106266 63.075315 0.000040 113.779402 -0.000039 3.280941 -0.734738 -17.818457 -27.365421 1.792381 -27.601107 4.637195 -8.634124 -0.225387 -1.273765 0.137315 -2.094882 -0.000002 -0.000000 0.000001 0.208213 1.692136 -14.028824 0.000001 -0.000474 0.003936 -0.000000 -0.000244 0.001990 -0.000000 0.000001 -0.000001 -6.450490 -10.980535 15.108351 127.374832 13.286361 -2.024830 -23.303796 6.578957 -18.512263 -66.835771 17.062718 -20.813337 -0.000001 0.000003 0.000002 -2.067022 1.034419 -13.791209 122.525753 -14.994207 3.306044 -23.019368 -4.250261 11.349206 17.499662 -19.825550 -57.017203 -0.000000 -0.000002 -0.000001 
